<svg width="20" height="20" xmlns="http://www.w3.org/2000/svg" style="display: none;">
    <symbol
        id="passwordView"
        viewBox="-1.2000000000000002 -2.4000000000000004 26.4 32.4"
    >
        <g>
            <path
                fill-rule="evenodd"
                clip-rule="evenodd"
                d="M7.13635 10.0196C6.37337 10.5884 5.82607 11.2241 5.45014 11.7515C5.3366 11.9108 5.3366 12.0892 5.45014 12.2485C5.82607 12.7759 6.37337 13.4116 7.13635 13.9804C6.88726 13.3693 6.75 12.7007 6.75 12C6.75 11.2993 6.88726 10.6307 7.13635 10.0196ZM16.8636 13.9804C17.6266 13.4116 18.1739 12.7759 18.5499 12.2485C18.6634 12.0892 18.6634 11.9108 18.5499 11.7515C18.1739 11.2241 17.6266 10.5884 16.8636 10.0196C17.1127 10.6307 17.25 11.2993 17.25 12C17.25 12.7007 17.1127 13.3693 16.8636 13.9804ZM12 6.5C7.48476 6.5 4.98309 8.96103 3.82153 10.5906C3.21281 11.4446 3.21281 12.5554 3.82153 13.4094C4.98309 15.039 7.48476 17.5 12 17.5C16.5152 17.5 19.0169 15.039 20.1785 13.4094C20.7872 12.5554 20.7872 11.4446 20.1785 10.5906C19.0169 8.96103 16.5152 6.5 12 6.5ZM15.25 12C15.25 13.7949 13.7949 15.25 12 15.25C10.2051 15.25 8.75 13.7949 8.75 12C8.75 10.2051 10.2051 8.75 12 8.75C13.7949 8.75 15.25 10.2051 15.25 12Z"
                fill="black"
            />
        </g>
    </symbol>

    <symbol
        id="passwordHidden"
        viewBox="-1.2000000000000002 -2.4000000000000004 26.4 32.4"
    >
        <g>
            <path
                fill-rule="evenodd"
                clip-rule="evenodd"
                d="M4.6585 4.24742C4.24287 3.88374 3.61111 3.92586 3.24742 4.34149C2.88374 4.75713 2.92586 5.38889 3.3415 5.75258L6.1852 8.24082C5.10065 8.99846 4.33179 9.87475 3.82153 10.5906C3.21281 11.4446 3.21281 12.5554 3.82153 13.4094C4.98309 15.039 7.48476 17.5 12 17.5C13.5371 17.5 14.8408 17.2148 15.9378 16.7743L19.3415 19.7526C19.7571 20.1163 20.3889 20.0741 20.7526 19.6585C21.1163 19.2429 21.0741 18.6111 20.6585 18.2474L4.6585 4.24742ZM13.6691 14.7892L9.01362 10.7157C8.84398 11.1096 8.75 11.5438 8.75 12C8.75 13.7949 10.2051 15.25 12 15.25C12.6103 15.25 13.1812 15.0818 13.6691 14.7892ZM15.25 12C15.25 12.1644 15.2378 12.3259 15.2143 12.4837L16.8796 13.9409C17.1186 13.3405 17.25 12.6856 17.25 12C17.25 11.2993 17.1127 10.6307 16.8636 10.0196C17.6266 10.5884 18.1739 11.2241 18.5499 11.7515C18.6634 11.9108 18.6634 12.0892 18.5499 12.2485C18.1794 12.7683 17.6424 13.3932 16.8966 13.9557L18.4262 15.2942C19.1956 14.6586 19.7699 13.9825 20.1785 13.4094C20.7872 12.5554 20.7872 11.4446 20.1785 10.5906C19.0169 8.96103 16.5152 6.5 12 6.5C10.8278 6.5 9.79122 6.66588 8.87863 6.94003L11.0936 8.87809C11.3813 8.7947 11.6854 8.75 12 8.75C13.7949 8.75 15.25 10.2051 15.25 12ZM7.13635 10.0196C6.37337 10.5884 5.82607 11.2241 5.45014 11.7515C5.3366 11.9108 5.3366 12.0892 5.45014 12.2485C5.82607 12.7759 6.37337 13.4116 7.13635 13.9804C6.88726 13.3693 6.75 12.7007 6.75 12C6.75 11.2993 6.88726 10.6307 7.13635 10.0196Z"
                fill="black"
            />
        </g>
    </symbol>
</svg>